C:\Users\r0593348\3dpredictsim\Results\Batchsim_tmt_linear\Pog_s1_tmt_aCst_d05_k800_ig24_pas_GRF.mot
nRows=15
nColumns=19

name C:\Users\r0593348\3dpredictsim\Results\Batchsim_tmt_linear\Pog_s1_tmt_aCst_d05_k800_ig24_pas_GRF.mot
datacolumns 19
datarows 15
range 0.5527775050 0.7075552064
endheader
time 	ground_force_vx	ground_force_vy	ground_force_vz	ground_force_px	ground_force_py	ground_force_pz	1_ground_force_vx	1_ground_force_vy	1_ground_force_vz	1_ground_force_px	1_ground_force_py	1_ground_force_pz	ground_torque_x	ground_torque_y	ground_torque_z	1_ground_torque_x	1_ground_torque_y	1_ground_torque_z
        0.5527775050	       93.9773783369	      469.6912232973	        5.1216911864	        0.3702477083	        0.0000000000	        0.0352458468	     -101.1723773402	       93.6839587652	      -42.7192479345	        0.8577976966	        0.0000000000	       -0.0377606122	        0.0000000000	        0.0000000000	        0.0000000000	        0.0000000000	        0.0000000000	        0.0000000000	
        0.5638330551	       75.7305815152	      386.2012511274	       10.1068555165	        0.3744029247	        0.0000000000	        0.0340255227	      -92.4353906131	      195.7089928835	      -74.8460382556	        0.8641325024	        0.0000000000	       -0.0359986373	        0.0000000000	        0.0000000000	        0.0000000000	        0.0000000000	        0.0000000000	        0.0000000000	
        0.5748886052	       55.2706658577	      298.7088448228	        7.4278060571	        0.3808508509	        0.0000000000	        0.0315115383	      -46.4495128927	      354.5194891558	      -16.7906936601	        0.8683047903	        0.0000000000	       -0.0343404419	        0.0000000000	        0.0000000000	        0.0000000000	        0.0000000000	        0.0000000000	        0.0000000000	
        0.5859441553	       27.0626683017	      197.5650263437	        6.1304985770	        0.3933790079	        0.0000000000	        0.0258980461	      -52.1733675763	      526.0774291259	        2.5964387712	        0.8741353210	        0.0000000000	       -0.0355065328	        0.0000000000	        0.0000000000	        0.0000000000	        0.0000000000	        0.0000000000	        0.0000000000	
        0.5969997054	        7.5134744111	      138.2432328942	       10.5619109345	        0.4061255552	        0.0000000000	        0.0193762998	      -86.1706608466	      702.1092287237	        9.6491343263	        0.8820407401	        0.0000000000	       -0.0379160275	        0.0000000000	        0.0000000000	        0.0000000000	        0.0000000000	        0.0000000000	        0.0000000000	
        0.6080552555	        1.3385317476	      108.4976075778	       11.8198430515	        0.4060698615	        0.0000000000	        0.0196662463	     -106.8118892639	      807.7813234916	       12.7831398070	        0.8874477478	        0.0000000000	       -0.0394452219	        0.0000000000	        0.0000000000	        0.0000000000	        0.0000000000	        0.0000000000	        0.0000000000	
        0.6191108056	       -2.5049857893	       71.0347780017	       10.9552030567	        0.4065490542	        0.0000000000	        0.0197290267	     -110.4760915066	      843.1821165301	       13.6187032081	        0.8911757397	        0.0000000000	       -0.0403551258	        0.0000000000	        0.0000000000	        0.0000000000	        0.0000000000	        0.0000000000	        0.0000000000	
        0.6301663557	       -8.3595597272	       29.4557834900	        5.8464245767	        0.4062203561	        0.0000000000	        0.0195353872	     -105.3262855304	      837.7113154073	       13.7832202078	        0.8942150311	        0.0000000000	       -0.0408812249	        0.0000000000	        0.0000000000	        0.0000000000	        0.0000000000	        0.0000000000	        0.0000000000	
        0.6412219058	        0.0978116079	       -0.0969469125	       -0.0022396626	        0.0000000000	        0.0000000000	        0.0000000000	      -95.9859622451	      818.8710991293	       14.1061503431	        0.8973732903	        0.0000000000	       -0.0411385663	        0.0000000000	        0.0000000000	        0.0000000000	        0.0000000000	        0.0000000000	        0.0000000000	
        0.6522774559	        0.0001404920	       -0.0001144485	        0.0000077723	        0.0000000000	        0.0000000000	        0.0000000000	      -83.8410479270	      789.3564825556	       14.8008341129	        0.9006584846	        0.0000000000	       -0.0412427266	        0.0000000000	        0.0000000000	        0.0000000000	        0.0000000000	        0.0000000000	        0.0000000000	
        0.6633330060	        0.0000583677	       -0.0000413605	        0.0000042784	        0.0000000000	        0.0000000000	        0.0000000000	      -72.7504465776	      756.2778448114	       15.1189169928	        0.9044975084	        0.0000000000	       -0.0412577255	        0.0000000000	        0.0000000000	        0.0000000000	        0.0000000000	        0.0000000000	        0.0000000000	
        0.6743885561	        0.0005669462	       -0.0003601824	        0.0000464792	        0.0000000000	        0.0000000000	        0.0000000000	      -63.1884109295	      725.4378839604	       15.2647861787	        0.9089023373	        0.0000000000	       -0.0411614179	        0.0000000000	        0.0000000000	        0.0000000000	        0.0000000000	        0.0000000000	        0.0000000000	
        0.6854441062	        0.0054811541	       -0.0031910798	        0.0004765607	        0.0000000000	        0.0000000000	        0.0000000000	      -53.7031246978	      694.8175852319	       15.7825899601	        0.9132608773	        0.0000000000	       -0.0410694777	        0.0000000000	        0.0000000000	        0.0000000000	        0.0000000000	        0.0000000000	        0.0000000000	
        0.6964996563	       -0.0288740399	        0.0156330509	       -0.0026120395	        0.0000000000	        0.0000000000	        0.0000000000	      -44.4383404203	      665.7250749478	       16.2900849072	        0.9175085747	        0.0000000000	       -0.0410395351	        0.0000000000	        0.0000000000	        0.0000000000	        0.0000000000	        0.0000000000	        0.0000000000	
        0.7075552064	       -0.0199233748	        0.0101419362	       -0.0018596556	        0.0000000000	        0.0000000000	        0.0000000000	      -36.5229844075	      640.4971150601	       16.7657785710	        0.9218419404	        0.0000000000	       -0.0410602054	        0.0000000000	        0.0000000000	        0.0000000000	        0.0000000000	        0.0000000000	        0.0000000000	
